<?xml version="1.0" encoding="UTF-8" standalone="no"?>
<svg width="48px" height="48px" viewBox="0 0 48 48" version="1.1" xmlns="http://www.w3.org/2000/svg" xmlns:xlink="http://www.w3.org/1999/xlink">
    <!-- Generator: Sketch 39 (31667) - http://www.bohemiancoding.com/sketch -->
    <title>Comment White</title>
    <desc>Created with Sketch.</desc>
    <defs></defs>
    <g id="Symbols" stroke="none" stroke-width="1" fill="none" fill-rule="evenodd">
        <g id="Comment-White">
            <rect id="Bound" x="0" y="0" width="48" height="48"></rect>
            <g id="Comment" transform="translate(7.000000, 6.000000)" fill="#FFFFFF">
                <path d="M28.394,35.343 L22.613,29.5605 C20.873,30.0795 19.0805,30.3435 17.264,30.3435 C7.9235,30.3435 0.3245,23.5845 0.3245,15.2745 C0.3245,6.969 7.9235,0.2085 17.264,0.2085 C26.612,0.2085 34.2155,6.969 34.2155,15.2745 C34.2155,19.6395 32.0975,23.7645 28.394,26.634 L28.394,35.343 L28.394,35.343 Z M22.9535,28.1655 L27.167,32.376 L27.167,26.022 L27.41,25.836 C30.9545,23.193 32.9855,19.344 32.9855,15.2745 C32.9855,7.6455 25.934,1.4385 17.2655,1.4385 C8.606,1.4385 1.556,7.6455 1.556,15.2745 C1.556,22.905 8.6045,29.115 17.2655,29.115 C19.079,29.115 20.8685,28.833 22.601,28.278 L22.9535,28.1655 L22.9535,28.1655 Z" id="Shape"></path>
                <g id="Group" transform="translate(8.000000, 10.500000)">
                    <path d="M17.5335,5.616 L1.0095,5.616 C0.672,5.616 0.3975,5.34 0.3975,5.001 C0.3975,4.662 0.6735,4.386 1.0095,4.386 L17.5335,4.386 C17.871,4.386 18.1455,4.662 18.1455,5.001 C18.1455,5.34 17.871,5.616 17.5335,5.616 L17.5335,5.616 Z" id="Shape"></path>
                    <path d="M17.5335,9.75 L1.0095,9.75 C0.672,9.75 0.3975,9.4725 0.3975,9.135 C0.3975,8.796 0.6735,8.5185 1.0095,8.5185 L17.5335,8.5185 C17.871,8.5185 18.1455,8.796 18.1455,9.135 C18.147,9.474 17.871,9.75 17.5335,9.75 L17.5335,9.75 Z" id="Shape"></path>
                    <path d="M17.5335,1.491 L1.0095,1.491 C0.672,1.491 0.3975,1.215 0.3975,0.876 C0.3975,0.537 0.6735,0.261 1.0095,0.261 L17.5335,0.261 C17.871,0.261 18.1455,0.537 18.1455,0.876 C18.147,1.215 17.871,1.491 17.5335,1.491 L17.5335,1.491 Z" id="Shape"></path>
                </g>
            </g>
        </g>
    </g>
</svg>