<?xml version="1.0" encoding="UTF-8" standalone="no"?>
<svg width="48px" height="48px" viewBox="0 0 48 48" version="1.1" xmlns="http://www.w3.org/2000/svg" xmlns:xlink="http://www.w3.org/1999/xlink">
    <!-- Generator: Sketch 39 (31667) - http://www.bohemiancoding.com/sketch -->
    <title>Go White</title>
    <desc>Created with Sketch.</desc>
    <defs></defs>
    <g id="Symbols" stroke="none" stroke-width="1" fill="none" fill-rule="evenodd">
        <g id="Go-White">
            <g id="Go" transform="translate(-2.000000, -2.000000)">
                <rect id="Bound" x="0" y="2" width="48" height="48"></rect>
                <g id="flights" transform="translate(28.102291, 25.102291) rotate(-45.000000) translate(-28.102291, -25.102291) translate(10.102291, 7.602291)" stroke="#FFFFFF">
                    <path d="M36,17.1 C36,15.66 34.74,14.4 33.3,14.4 L23.4,14.4 L14.4,1.56319402e-13 L10.8,1.56319402e-13 L15.3,14.4 L5.4,14.4 L2.7,10.8 L2.77111667e-13,10.8 L1.8,17.1 L2.77111667e-13,23.4 L2.7,23.4 L5.4,19.8 L15.3,19.8 L10.8,34.2 L14.4,34.2 L23.4,19.8 L33.3,19.8 C34.74,19.8 36,18.54 36,17.1 L36,17.1 Z" id="Shape"></path>
                </g>
            </g>
        </g>
    </g>
</svg>