<?xml version="1.0" encoding="UTF-8" standalone="no"?>
<svg width="48px" height="48px" viewBox="0 0 48 48" version="1.1" xmlns="http://www.w3.org/2000/svg" xmlns:xlink="http://www.w3.org/1999/xlink">
    <!-- Generator: Sketch 39 (31667) - http://www.bohemiancoding.com/sketch -->
    <title>Map White</title>
    <desc>Created with Sketch.</desc>
    <defs></defs>
    <g id="Symbols" stroke="none" stroke-width="1" fill="none" fill-rule="evenodd">
        <g id="Map-White">
            <g id="Map">
                <rect id="Bound" x="0" y="0" width="48" height="48"></rect>
                <path d="M39.2211953,8.03816961 L29.1432092,11.7885437 L19.0595898,8.03816961 C19.0398733,8.02690299 19.0187483,8.03535295 18.9933985,8.03112797 C18.9469237,8.01845303 18.9060822,8.01422805 18.8581991,8.01422805 C18.810316,8.01422805 18.7680662,8.01845303 18.7229997,8.03112797 C18.6976499,8.03535295 18.676525,8.02690299 18.6568084,8.03816961 L8.37743156,11.8645933 C8.15209929,11.9462763 8,12.1645669 8,12.4053908 L8,38.4890102 C8,38.6791343 8.09294956,38.8537668 8.2478655,38.9636163 C8.34644838,39.0298077 8.45911451,39.0664242 8.57459731,39.0664242 C8.64642197,39.0664242 8.70979667,39.0537492 8.77880468,39.0298077 L18.8567908,35.2766169 L28.9375935,39.0298077 C29.0066015,39.0551575 29.0756095,39.0664242 29.1418009,39.0664242 C29.2079923,39.0664242 29.2770003,39.0537492 29.3431916,39.0298077 L39.6225684,35.2005673 C39.8507174,35.117476 40,34.902002 40,34.6597698 L40,8.57896707 C40,8.38884296 39.9098671,8.21280212 39.7521345,8.10576929 C39.5986269,7.99732813 39.4000528,7.96775327 39.2211953,8.03816961 L39.2211953,8.03816961 Z M18.2807851,34.2583967 L9.15482792,37.6566891 L9.15482792,12.8053556 L18.2807851,9.40987984 L18.2807851,34.2583967 L18.2807851,34.2583967 Z M28.5657953,37.6566891 L19.4370214,34.2583967 L19.4370214,9.40847152 L28.5657953,12.8039473 L28.5657953,37.6566891 L28.5657953,37.6566891 Z M38.8479887,34.2583967 L29.7220315,37.6566891 L29.7220315,12.8053556 L38.8479887,9.40987984 L38.8479887,34.2583967 L38.8479887,34.2583967 Z" id="Shape" fill="#FFFFFF"></path>
            </g>
        </g>
    </g>
</svg>