<?xml version="1.0" encoding="UTF-8" standalone="no"?>
<svg width="48px" height="48px" viewBox="0 0 48 48" version="1.1" xmlns="http://www.w3.org/2000/svg" xmlns:xlink="http://www.w3.org/1999/xlink">
    <!-- Generator: Sketch 39 (31667) - http://www.bohemiancoding.com/sketch -->
    <title>Mute White</title>
    <desc>Created with Sketch.</desc>
    <defs>
        <path d="M17.4250787,29.3167466 C15.5331767,29.3167466 14,27.7795448 14,25.8833103 L14,21.9923096 C14,20.1002142 15.53346,18.5588732 17.4250787,18.5588732 L19.4605161,18.5588732 C23.8903353,14.3097795 31.3027266,10.8676551 32.7415001,12.3503673 C33.8130056,13.4545955 34.0907765,18.8330754 34.141458,24.408709 C34.1891219,29.6523581 34.085108,35.1025241 32.7415001,36.3487003 C30.6910371,38.2504739 22.5742383,34.0569424 18.4865028,29.3167466 L17.4250787,29.3167466 Z" id="path-1"></path>
        <mask id="mask-2" maskContentUnits="userSpaceOnUse" maskUnits="objectBoundingBox" x="0" y="0" width="20.5699997" height="24.8554163" fill="white">
            <use xlink:href="#path-1"></use>
        </mask>
    </defs>
    <g id="Symbols" stroke="none" stroke-width="1" fill="none" fill-rule="evenodd">
        <g id="Mute-White">
            <g id="Mute">
                <rect id="Bound" x="0" y="0" width="48" height="48"></rect>
                <use id="Rectangle-153" stroke="#FFFFFF" mask="url(#mask-2)" stroke-width="2" xlink:href="#path-1"></use>
                <g id="Close" transform="translate(3.000000, 3.000000)">
                    <g id="Group" transform="translate(21.307692, 21.000000) rotate(-270.000000) translate(-21.307692, -21.000000) translate(4.000000, 3.000000)" stroke="#FFFFFF" stroke-linecap="round">
                        <path d="M34.4584811,35.0163338 L0.510940727,0.312035065" id="Line"></path>
                        <path d="M0.510940727,35.0163338 L34.4584811,0.312035065" id="Line"></path>
                    </g>
                    <rect id="Bounds" x="0" y="0" width="42" height="42"></rect>
                </g>
            </g>
        </g>
    </g>
</svg>