<?xml version="1.0" encoding="UTF-8" standalone="no"?>
<svg width="48px" height="48px" viewBox="0 0 48 48" version="1.1" xmlns="http://www.w3.org/2000/svg" xmlns:xlink="http://www.w3.org/1999/xlink">
    <!-- Generator: Sketch 39 (31667) - http://www.bohemiancoding.com/sketch -->
    <title>Pause White</title>
    <desc>Created with Sketch.</desc>
    <defs></defs>
    <g id="Symbols" stroke="none" stroke-width="1" fill="none" fill-rule="evenodd">
        <g id="Pause-White">
            <g id="Pause">
                <rect id="Bound" x="0" y="0" width="48" height="48"></rect>
                <path d="M23.9904,6 C14.0688,6 6,14.0724 6,23.9928 C6,33.9132 14.07,41.988 23.9904,41.988 C33.9144,41.988 41.988,33.9132 41.988,23.9928 C41.988,14.0724 33.9144,6 23.9904,6 L23.9904,6 Z M23.9904,40.6968 C14.784,40.6968 7.2912,33.204 7.2912,23.9928 C7.2912,14.784 14.784,7.2912 23.9904,7.2912 C33.2016,7.2912 40.6968,14.784 40.6968,23.9928 C40.6968,33.204 33.2016,40.6968 23.9904,40.6968 L23.9904,40.6968 Z M28.3284,15.696 C27.972,15.696 27.684,15.9864 27.684,16.3428 L27.684,31.6452 C27.684,32.0016 27.972,32.292 28.3284,32.292 C28.6848,32.292 28.9752,32.0016 28.9752,31.6452 L28.9752,16.3428 C28.9752,15.9864 28.6848,15.696 28.3284,15.696 L28.3284,15.696 Z M19.6596,15.696 C19.3032,15.696 19.0128,15.9864 19.0128,16.3428 L19.0128,31.6452 C19.0128,32.0016 19.3032,32.292 19.6596,32.292 C20.016,32.292 20.304,32.0016 20.304,31.6452 L20.304,16.3428 C20.304,15.9864 20.016,15.696 19.6596,15.696 L19.6596,15.696 Z" id="Pause-round-2" fill="#FFFFFF"></path>
            </g>
        </g>
    </g>
</svg>