<?xml version="1.0" encoding="UTF-8" standalone="no"?>
<svg width="48px" height="48px" viewBox="0 0 48 48" version="1.1" xmlns="http://www.w3.org/2000/svg" xmlns:xlink="http://www.w3.org/1999/xlink">
    <!-- Generator: Sketch 39 (31667) - http://www.bohemiancoding.com/sketch -->
    <title>Play White</title>
    <desc>Created with Sketch.</desc>
    <defs></defs>
    <g id="Symbols" stroke="none" stroke-width="1" fill="none" fill-rule="evenodd">
        <g id="Play-White">
            <g id="Play">
                <rect id="Bound" x="0" y="0" width="48" height="48"></rect>
                <path d="M23.9904,6 C14.0688,6 6,14.0724 6,23.9952 C6,33.9168 14.07,41.9856 23.9904,41.9856 C33.9108,41.9856 41.988,33.9156 41.988,23.9952 C41.988,14.0724 33.912,6 23.9904,6 L23.9904,6 Z M23.9904,40.6944 C14.7816,40.6944 7.2912,33.2064 7.2912,23.9952 C7.2912,14.784 14.7816,7.2912 23.9904,7.2912 C33.2016,7.2912 40.6968,14.784 40.6968,23.9952 C40.6968,33.2064 33.2016,40.6944 23.9904,40.6944 L23.9904,40.6944 Z M32.1024,22.2912 L20.838,16.038 C19.3032,15.1848 17.8332,16.0896 17.8332,17.808 L17.8332,30.1788 C17.8332,31.4424 18.5592,32.2932 19.638,32.2932 C20.0268,32.2932 20.4324,32.178 20.8404,31.9512 L32.1024,25.6956 C32.8476,25.2828 33.2772,24.6624 33.2772,23.9964 C33.2772,23.3304 32.8476,22.7088 32.1024,22.2912 L32.1024,22.2912 Z M31.4748,24.5652 L20.2152,30.8208 C20.0016,30.9384 19.8048,31.0008 19.6392,31.0008 C19.194,31.0008 19.1256,30.4872 19.1256,30.1776 L19.1256,17.808 C19.1256,17.5008 19.194,16.9872 19.6392,16.9872 C19.806,16.9872 20.0028,17.0508 20.2152,17.1672 L31.4748,23.4204 C31.7892,23.5956 31.986,23.8164 31.986,23.9952 C31.9848,24.1716 31.788,24.3912 31.4748,24.5652 L31.4748,24.5652 Z" id="Play-round-2" fill="#FFFFFF"></path>
            </g>
        </g>
    </g>
</svg>