<?xml version="1.0" encoding="UTF-8" standalone="no"?>
<svg width="48px" height="48px" viewBox="0 0 48 48" version="1.1" xmlns="http://www.w3.org/2000/svg" xmlns:xlink="http://www.w3.org/1999/xlink">
    <!-- Generator: Sketch 39 (31667) - http://www.bohemiancoding.com/sketch -->
    <title>Random White</title>
    <desc>Created with Sketch.</desc>
    <defs></defs>
    <g id="Symbols" stroke="none" stroke-width="1" fill="none" fill-rule="evenodd">
        <g id="Random-White">
            <g id="Random">
                <rect id="Bound" x="0" y="0" width="48" height="48"></rect>
                <g id="Group" transform="translate(6.000000, 6.000000)" fill="#FFFFFF">
                    <path d="M25.116,10.2 L14.9535,14.5545 C14.8065,14.6175 14.6955,14.7315 14.631,14.877 L10.275,25.035 C10.182,25.266 10.2315,25.536 10.41,25.7115 C10.524,25.83 10.686,25.893 10.8435,25.893 C10.923,25.893 11.007,25.875 11.0835,25.842 L21.246,21.4875 C21.393,21.4245 21.507,21.3105 21.5715,21.165 L25.9245,11.007 C26.0205,10.7775 25.971,10.5075 25.7925,10.329 C25.617,10.1535 25.344,10.1025 25.116,10.2 L25.116,10.2 Z M12.015,24.1095 L15.405,16.1955 L19.929,20.7195 L12.015,24.1095 L12.015,24.1095 Z M20.7975,19.8495 L16.2705,15.3255 L24.186,11.9325 L20.7975,19.8495 L20.7975,19.8495 Z" id="Shape"></path>
                    <path d="M18.099,0.9855 C8.706,0.9855 1.0635,8.6265 1.0635,18.0195 C1.0635,27.411 8.7075,35.055 18.099,35.055 C27.495,35.055 35.1345,27.4095 35.1345,18.0195 C35.136,8.6265 27.495,0.9855 18.099,0.9855 L18.099,0.9855 Z M18.099,33.828 C9.3825,33.828 2.2935,26.736 2.2935,18.021 C2.2935,9.306 9.384,2.217 18.099,2.217 C26.814,2.217 33.9045,9.3075 33.9045,18.021 C33.906,26.736 26.8155,33.828 18.099,33.828 L18.099,33.828 Z" id="Shape"></path>
                    <path d="M18.099,5.544 C18.573,5.544 18.96,5.157 18.96,4.68 C18.96,4.203 18.573,3.816 18.099,3.816 C17.625,3.816 17.238,4.203 17.238,4.68 C17.238,5.157 17.625,5.544 18.099,5.544 L18.099,5.544 Z M18.099,4.314 C18.3045,4.314 18.468,4.4775 18.468,4.68 C18.468,5.0865 17.733,5.0865 17.733,4.68 C17.733,4.4775 17.898,4.314 18.099,4.314 L18.099,4.314 Z" id="Shape"></path>
                    <path d="M18.099,30.501 C17.625,30.501 17.238,30.888 17.238,31.3605 C17.238,31.8375 17.625,32.2245 18.099,32.2245 C18.573,32.2245 18.96,31.8375 18.96,31.3605 C18.9615,30.888 18.5745,30.501 18.099,30.501 L18.099,30.501 Z M17.733,31.3605 C17.733,31.158 17.8965,30.9975 18.099,30.9975 C18.3045,30.9975 18.468,31.158 18.468,31.3605 C18.468,31.7715 17.733,31.7715 17.733,31.3605 L17.733,31.3605 Z" id="Shape"></path>
                    <path d="M31.4445,17.1585 C30.9705,17.1585 30.5805,17.544 30.5805,18.0195 C30.5805,18.498 30.9705,18.885 31.4445,18.885 C31.9185,18.885 32.3055,18.498 32.3055,18.0195 C32.3055,17.544 31.9185,17.1585 31.4445,17.1585 L31.4445,17.1585 Z M31.0785,18.021 C31.0785,17.8155 31.236,17.6565 31.4445,17.6565 C31.647,17.6565 31.8075,17.8185 31.8075,18.021 C31.8075,18.432 31.0785,18.432 31.0785,18.021 L31.0785,18.021 Z" id="Shape"></path>
                    <path d="M4.761,17.1585 C4.287,17.1585 3.9,17.544 3.9,18.0195 C3.9,18.498 4.287,18.885 4.761,18.885 C5.235,18.885 5.622,18.498 5.622,18.0195 C5.622,17.544 5.235,17.1585 4.761,17.1585 L4.761,17.1585 Z M4.392,18.021 C4.392,17.8185 4.5555,17.6565 4.761,17.6565 C4.9635,17.6565 5.127,17.8185 5.127,18.021 C5.127,18.4245 4.392,18.4245 4.392,18.021 L4.392,18.021 Z" id="Shape"></path>
                </g>
            </g>
        </g>
    </g>
</svg>