<?xml version="1.0" encoding="UTF-8" standalone="no"?>
<svg width="48px" height="48px" viewBox="0 0 48 48" version="1.1" xmlns="http://www.w3.org/2000/svg" xmlns:xlink="http://www.w3.org/1999/xlink">
    <!-- Generator: Sketch 39 (31667) - http://www.bohemiancoding.com/sketch -->
    <title>Search White</title>
    <desc>Created with Sketch.</desc>
    <defs></defs>
    <g id="Symbols" stroke="none" stroke-width="1" fill="none" fill-rule="evenodd">
        <g id="Search-White">
            <g id="Search">
                <rect id="Bound" x="0" y="0" width="48" height="48"></rect>
                <g id="Group" transform="translate(7.000000, 6.000000)" fill="#FFFFFF">
                    <path d="M23.6565,23.1945 C23.5605,23.1015 23.439,23.0775 23.316,23.0535 C25.6065,20.598 26.8905,17.445 26.8905,14.073 C26.8935,10.5435 25.5165,7.2225 23.0205,4.7265 C20.5215,2.226 17.199,0.8505 13.6695,0.8505 C10.137,0.8505 6.8175,2.226 4.3155,4.7265 C1.8195,7.2225 0.4425,10.545 0.4455,14.076 C0.4455,17.607 1.8225,20.9295 4.3215,23.4255 C6.8175,25.923 10.137,27.2985 13.6695,27.2985 C17.0385,27.2985 20.1945,26.0145 22.6455,23.727 C22.6695,23.8485 22.692,23.97 22.7835,24.0645 L33.486,34.764 C33.603,34.8825 33.762,34.944 33.9195,34.944 C34.077,34.944 34.233,34.8825 34.353,34.764 C34.593,34.524 34.593,34.1355 34.353,33.8955 L23.6565,23.1945 L23.6565,23.1945 Z M22.149,22.557 C19.884,24.8205 16.872,26.07 13.671,26.07 C10.47,26.07 7.4565,24.8205 5.19,22.557 C2.925,20.2905 1.677,17.28 1.677,14.076 C1.674,10.872 2.922,7.86 5.187,5.595 C7.455,3.3285 10.4685,2.079 13.671,2.079 C16.8735,2.079 19.8855,3.3285 22.152,5.595 C24.417,7.8615 25.665,10.872 25.665,14.073 C25.6635,17.277 24.4125,20.2875 22.149,22.557 L22.149,22.557 Z" id="Shape"></path>
                    <path d="M3.6855,14.079 L4.9125,14.079 C4.9125,9.252 8.844,5.322 13.6695,5.322 L13.6695,4.0935 C8.1645,4.0935 3.6855,8.5725 3.6855,14.079 L3.6855,14.079 Z" id="Shape"></path>
                </g>
            </g>
        </g>
    </g>
</svg>