<?xml version="1.0" encoding="UTF-8" standalone="no"?>
<svg width="48px" height="48px" viewBox="0 0 48 48" version="1.1" xmlns="http://www.w3.org/2000/svg" xmlns:xlink="http://www.w3.org/1999/xlink">
    <!-- Generator: Sketch 39 (31667) - http://www.bohemiancoding.com/sketch -->
    <title>Setting White</title>
    <desc>Created with Sketch.</desc>
    <defs></defs>
    <g id="Symbols" stroke="none" stroke-width="1" fill="none" fill-rule="evenodd">
        <g id="Setting-White">
            <g id="Setting">
                <rect id="Bound" x="0" y="0" width="48" height="48"></rect>
                <path d="M23.9976,41.9832 C22.9572,41.9832 21.9792,41.5776 21.2436,40.842 C20.5356,40.1364 20.1372,39.2064 20.1096,38.2128 C18.9192,37.8876 17.7756,37.4136 16.6968,36.7968 C15.2184,38.1912 12.7224,38.166 11.2728,36.72 C10.5396,35.982 10.1364,35.0064 10.134,33.9684 C10.134,32.9676 10.5084,32.0208 11.1936,31.296 C10.5768,30.2208 10.104,29.0736 9.7752,27.8832 C7.6824,27.8244 6,26.1024 6,23.9952 C6,21.8904 7.6824,20.1684 9.7752,20.1072 C10.1004,18.9168 10.5744,17.7756 11.1912,16.6944 C9.7524,15.1752 9.7752,12.7644 11.268,11.2704 C12.7068,9.8244 15.2124,9.798 16.692,11.1912 C17.7672,10.5768 18.9096,10.104 20.1024,9.7776 C20.1636,7.6848 21.8832,6 23.9904,6 C26.1024,6 27.8196,7.6848 27.8808,9.7776 C29.0736,10.1028 30.2148,10.5768 31.2888,11.1912 C32.772,9.792 35.268,9.8196 36.7164,11.268 C38.2068,12.7584 38.2332,15.1704 36.7896,16.692 C37.4064,17.7696 37.8792,18.912 38.208,20.1024 C40.3032,20.1612 41.988,21.8832 41.988,23.9904 C41.988,25.026 41.5848,26.004 40.8492,26.7372 C40.1412,27.4476 39.2064,27.8508 38.208,27.876 C37.884,29.0664 37.4112,30.2076 36.7944,31.2864 C38.2356,32.8188 38.208,35.226 36.72,36.7116 C35.2788,38.1552 32.766,38.184 31.2984,36.7884 C30.2184,37.4052 29.076,37.8804 27.888,38.2044 C27.8268,40.3008 26.1024,41.9832 23.9976,41.9832 L23.9976,41.9832 Z M16.5324,35.2992 C16.65,35.2992 16.7688,35.3316 16.8744,35.3976 C18.1428,36.1944 19.5228,36.7644 20.9712,37.0968 C21.2952,37.1712 21.51,37.4784 21.468,37.8048 C21.4656,37.8372 21.4212,38.0304 21.414,38.0628 C21.3972,38.7888 21.6648,39.4404 22.1568,39.9288 C22.6464,40.4232 23.3004,40.6932 23.9964,40.6932 C25.428,40.6932 26.5956,39.528 26.598,38.0964 C26.5608,37.974 26.5368,37.89 26.5272,37.7988 C26.4876,37.4712 26.7012,37.1688 27.024,37.0956 C28.4676,36.7632 29.8464,36.1884 31.1184,35.3916 C31.3968,35.2176 31.7676,35.2764 31.9716,35.5392 C32.028,35.6124 32.0724,35.6892 32.112,35.7648 C33.1248,36.822 34.8216,36.7872 35.8032,35.802 C36.816,34.7916 36.816,33.1392 35.8032,32.1228 C35.688,32.0616 35.616,32.0196 35.5428,31.9632 C35.2824,31.7592 35.2176,31.3908 35.3928,31.1124 C36.1896,29.8392 36.7596,28.464 37.0896,27.0156 C37.1628,26.6916 37.4688,26.484 37.7976,26.5188 C37.884,26.5308 37.9716,26.5488 38.0556,26.5752 C38.862,26.5512 39.4428,26.3196 39.9348,25.8276 C40.4244,25.338 40.6944,24.6864 40.6944,23.9928 C40.6944,22.5612 39.5268,21.3936 38.0904,21.3936 C38.058,21.4032 37.8324,21.462 37.8,21.4644 C37.4364,21.4992 37.1676,21.2904 37.092,20.97 C36.7548,19.5192 36.1824,18.1392 35.388,16.8684 C35.2128,16.59 35.2776,16.2216 35.5356,16.0176 C35.61,15.9612 35.688,15.9168 35.7648,15.8724 C36.8148,14.844 36.8148,13.1976 35.7996,12.1836 C34.8156,11.1948 33.1044,11.202 32.1228,12.186 C32.0616,12.3036 32.0148,12.378 31.9584,12.4512 C31.7496,12.7092 31.3836,12.768 31.11,12.5964 C29.8416,11.802 28.4616,11.2272 27.0156,10.8924 C26.6916,10.8192 26.4768,10.518 26.5188,10.1892 C26.5284,10.098 26.5512,10.014 26.5728,9.9264 C26.5896,8.4612 25.4244,7.2948 23.9952,7.2948 C22.5564,7.2948 21.3888,8.4624 21.3888,9.894 C21.426,10.014 21.45,10.098 21.4596,10.1892 C21.4968,10.5168 21.2856,10.8192 20.9628,10.8924 C19.5168,11.2272 18.1368,11.802 16.8684,12.5964 C16.5936,12.7704 16.2264,12.7116 16.02,12.4512 C15.9636,12.3804 15.9168,12.3036 15.8748,12.2244 C14.8596,11.172 13.158,11.2092 12.1812,12.1872 C11.166,13.2024 11.166,14.85 12.1812,15.864 C12.2964,15.9252 12.3708,15.9696 12.444,16.0284 C12.6996,16.2324 12.7632,16.5984 12.5892,16.8768 C11.7924,18.15 11.22,19.5276 10.89,20.9736 C10.8156,21.2976 10.5336,21.5004 10.1796,21.4704 C10.1472,21.468 9.954,21.4236 9.924,21.414 C8.5104,21.4356 7.29,22.5672 7.29,23.9988 C7.29,25.4304 8.4576,26.6004 9.8916,26.6004 C9.9264,26.5884 10.1472,26.532 10.1796,26.5272 C10.5336,26.5032 10.812,26.7024 10.8876,27.0216 C11.2224,28.4724 11.7972,29.8524 12.5916,31.1232 C12.7656,31.3992 12.702,31.7652 12.4488,31.9692 C12.3744,32.028 12.2964,32.0748 12.2196,32.1192 C11.694,32.6208 11.4252,33.2748 11.4252,33.9708 C11.4252,34.6644 11.6976,35.316 12.1872,35.808 C13.1712,36.7944 14.8824,36.7896 15.8616,35.808 C15.9228,35.6952 15.9672,35.6184 16.0212,35.5476 C16.1484,35.3832 16.3404,35.2992 16.5324,35.2992 L16.5324,35.2992 Z M23.9904,18.1596 C20.7768,18.1596 18.1596,20.778 18.1596,23.9928 C18.1596,27.2076 20.778,29.826 23.9904,29.826 C27.2064,29.826 29.8236,27.2076 29.8236,23.9928 C29.8236,20.778 27.2064,18.1596 23.9904,18.1596 L23.9904,18.1596 Z M23.9904,31.1184 C20.0628,31.1184 16.8672,27.924 16.8672,23.9928 C16.8672,20.0652 20.0616,16.8672 23.9904,16.8672 C27.9204,16.8672 31.116,20.064 31.116,23.9928 C31.116,27.924 27.9216,31.1184 23.9904,31.1184 L23.9904,31.1184 Z" id="Settings-4" fill="#FFFFFF"></path>
            </g>
        </g>
    </g>
</svg>